<svg xmlns="http://www.w3.org/2000/svg" xmlns:xlink="http://www.w3.org/1999/xlink" width="300.104" height="220.08" viewBox="0 0 300.104 220.08"><defs><style>.a{fill:url(#a);}</style><linearGradient id="a" x2="1" y2="1" gradientUnits="objectBoundingBox"><stop offset="0" stop-color="#af00fa"/><stop offset="1" stop-color="#280b42"/></linearGradient></defs><path class="a" d="M-1209.392,249.269V29.19a37.2,37.2,0,0,0,17.894,5.717c11.457.527,22.559-3.8,33.97-4.941,33.119-3.321,62.635,22.083,67.036,54.139,3.307,24.087-.63,48.1,11.525,70.356,7.02,12.855,18.334,23.613,32.124,28.549,15.639,5.6,32.812,3.46,49.39,2.412,18.218-1.151,38.018,1.082,52.048,13.925,9.734,8.91,16.61,20.359,23.631,31.624a200.177,200.177,0,0,0,11.9,17.567q.289.369.582.733Z" transform="translate(1209.392 -29.19)"/></svg>