<svg xmlns="http://www.w3.org/2000/svg" width="93.734" height="80.827" viewBox="0 0 93.734 80.827"><defs><style>.a{fill:#11161b;}.b{fill:#f8dd0f;}</style></defs><g transform="translate(-133.553 -226.3)"><path class="a" d="M160.4,239.723a13.423,13.423,0,1,0-26.846,0V293.7a13.423,13.423,0,0,0,26.846,0Z"/><path class="a" d="M233.68,282.4l32.973-32.973a13.423,13.423,0,0,0-18.984-18.983L214.7,263.416A13.423,13.423,0,1,0,233.68,282.4Z" transform="translate(-43.29 -0.122)"/><path class="b" d="M298.976,348.9A13.423,13.423,0,1,0,312.4,362.322,13.438,13.438,0,0,0,298.976,348.9Z" transform="translate(-85.215 -68.732)"/><path class="a" d="M189.5,263.416l-32.973-32.973a13.423,13.423,0,0,0-18.983,18.984L170.516,282.4A13.423,13.423,0,1,0,189.5,263.416Z" transform="translate(-0.036 -0.122)"/></g></svg>