<svg xmlns="http://www.w3.org/2000/svg" width="26" height="22.42" viewBox="0 0 26 22.42"><defs><style>.a{fill:#fff;}.b{fill:#f8dd0f;}</style></defs><g transform="translate(-133.553 -226.3)"><path class="a" d="M141,230.023a3.723,3.723,0,1,0-7.447,0V245A3.723,3.723,0,0,0,141,245Z" transform="translate(0 0)"/><path class="a" d="M217.125,242.018l9.146-9.146a3.723,3.723,0,0,0-5.266-5.266l-9.146,9.146a3.723,3.723,0,1,0,5.266,5.266Z" transform="translate(-67.807 -0.191)"/><path class="b" d="M289.276,348.9A3.723,3.723,0,1,0,293,352.622,3.728,3.728,0,0,0,289.276,348.9Z" transform="translate(-133.475 -107.657)"/><path class="a" d="M149.118,236.753l-9.146-9.146a3.723,3.723,0,0,0-5.265,5.266l9.146,9.146a3.723,3.723,0,1,0,5.265-5.266Z" transform="translate(-0.057 -0.191)"/></g></svg>